<svg xmlns="http://www.w3.org/2000/svg" xmlns:xlink="http://www.w3.org/1999/xlink" width="500" zoomAndPan="magnify" viewBox="0 0 375 374.999991" height="500" preserveAspectRatio="xMidYMid meet" version="1.2"><defs><clipPath id="0de01d271d"><path d="M 0 0 L 371.25 0 L 371.25 371.25 L 0 371.25 Z M 0 0 "/></clipPath><clipPath id="c11c0d55fc"><path d="M 185.625 0 C 83.105469 0 0 83.105469 0 185.625 C 0 288.144531 83.105469 371.25 185.625 371.25 C 288.144531 371.25 371.25 288.144531 371.25 185.625 C 371.25 83.105469 288.144531 0 185.625 0 Z M 185.625 0 "/></clipPath><clipPath id="0e2423ab1e"><path d="M 0 0 L 371.25 0 L 371.25 371.25 L 0 371.25 Z M 0 0 "/></clipPath><clipPath id="d3f5eea29a"><path d="M 185.625 0 C 83.105469 0 0 83.105469 0 185.625 C 0 288.144531 83.105469 371.25 185.625 371.25 C 288.144531 371.25 371.25 288.144531 371.25 185.625 C 371.25 83.105469 288.144531 0 185.625 0 Z M 185.625 0 "/></clipPath><linearGradient x1="0" gradientTransform="matrix(1.450195,0,0,1.450195,0.0000045,0)" y1="128" x2="255.999999" gradientUnits="userSpaceOnUse" y2="128" id="2faede59b4"><stop style="stop-color:#ffde59;stop-opacity:1;" offset="0"/><stop style="stop-color:#ffde59;stop-opacity:1;" offset="0.0078125"/><stop style="stop-color:#ffdd59;stop-opacity:1;" offset="0.015625"/><stop style="stop-color:#ffdc59;stop-opacity:1;" offset="0.0234375"/><stop style="stop-color:#ffdc59;stop-opacity:1;" offset="0.03125"/><stop style="stop-color:#ffdb59;stop-opacity:1;" offset="0.0390625"/><stop style="stop-color:#ffdb58;stop-opacity:1;" offset="0.046875"/><stop style="stop-color:#ffda58;stop-opacity:1;" offset="0.0546875"/><stop style="stop-color:#ffd958;stop-opacity:1;" offset="0.0625"/><stop style="stop-color:#ffd958;stop-opacity:1;" offset="0.0703125"/><stop style="stop-color:#ffd858;stop-opacity:1;" offset="0.078125"/><stop style="stop-color:#ffd858;stop-opacity:1;" offset="0.0859375"/><stop style="stop-color:#ffd758;stop-opacity:1;" offset="0.09375"/><stop style="stop-color:#ffd658;stop-opacity:1;" offset="0.101563"/><stop style="stop-color:#ffd658;stop-opacity:1;" offset="0.109375"/><stop style="stop-color:#ffd558;stop-opacity:1;" offset="0.117188"/><stop style="stop-color:#ffd558;stop-opacity:1;" offset="0.125"/><stop style="stop-color:#ffd457;stop-opacity:1;" offset="0.132812"/><stop style="stop-color:#ffd357;stop-opacity:1;" offset="0.140625"/><stop style="stop-color:#ffd357;stop-opacity:1;" offset="0.148438"/><stop style="stop-color:#ffd257;stop-opacity:1;" offset="0.15625"/><stop style="stop-color:#ffd257;stop-opacity:1;" offset="0.164062"/><stop style="stop-color:#ffd157;stop-opacity:1;" offset="0.171875"/><stop style="stop-color:#ffd057;stop-opacity:1;" offset="0.179688"/><stop style="stop-color:#ffd057;stop-opacity:1;" offset="0.1875"/><stop style="stop-color:#ffcf57;stop-opacity:1;" offset="0.195312"/><stop style="stop-color:#ffcf57;stop-opacity:1;" offset="0.203125"/><stop style="stop-color:#ffce57;stop-opacity:1;" offset="0.210938"/><stop style="stop-color:#ffcd56;stop-opacity:1;" offset="0.21875"/><stop style="stop-color:#ffcd56;stop-opacity:1;" offset="0.226562"/><stop style="stop-color:#ffcc56;stop-opacity:1;" offset="0.234375"/><stop style="stop-color:#ffcc56;stop-opacity:1;" offset="0.242188"/><stop style="stop-color:#ffcb56;stop-opacity:1;" offset="0.25"/><stop style="stop-color:#ffca56;stop-opacity:1;" offset="0.257812"/><stop style="stop-color:#ffca56;stop-opacity:1;" offset="0.265625"/><stop style="stop-color:#ffc956;stop-opacity:1;" offset="0.273437"/><stop style="stop-color:#ffc956;stop-opacity:1;" offset="0.28125"/><stop style="stop-color:#ffc856;stop-opacity:1;" offset="0.289062"/><stop style="stop-color:#ffc755;stop-opacity:1;" offset="0.296875"/><stop style="stop-color:#ffc755;stop-opacity:1;" offset="0.304687"/><stop style="stop-color:#ffc655;stop-opacity:1;" offset="0.3125"/><stop style="stop-color:#ffc655;stop-opacity:1;" offset="0.320312"/><stop style="stop-color:#ffc555;stop-opacity:1;" offset="0.328125"/><stop style="stop-color:#ffc455;stop-opacity:1;" offset="0.335937"/><stop style="stop-color:#ffc455;stop-opacity:1;" offset="0.34375"/><stop style="stop-color:#ffc355;stop-opacity:1;" offset="0.351562"/><stop style="stop-color:#ffc355;stop-opacity:1;" offset="0.359375"/><stop style="stop-color:#ffc255;stop-opacity:1;" offset="0.367188"/><stop style="stop-color:#ffc155;stop-opacity:1;" offset="0.375"/><stop style="stop-color:#ffc154;stop-opacity:1;" offset="0.382812"/><stop style="stop-color:#ffc054;stop-opacity:1;" offset="0.390625"/><stop style="stop-color:#ffc054;stop-opacity:1;" offset="0.398438"/><stop style="stop-color:#ffbf54;stop-opacity:1;" offset="0.40625"/><stop style="stop-color:#ffbe54;stop-opacity:1;" offset="0.414063"/><stop style="stop-color:#ffbe54;stop-opacity:1;" offset="0.421875"/><stop style="stop-color:#ffbd54;stop-opacity:1;" offset="0.429688"/><stop style="stop-color:#ffbd54;stop-opacity:1;" offset="0.4375"/><stop style="stop-color:#ffbc54;stop-opacity:1;" offset="0.445313"/><stop style="stop-color:#ffbb54;stop-opacity:1;" offset="0.453125"/><stop style="stop-color:#ffbb54;stop-opacity:1;" offset="0.460938"/><stop style="stop-color:#ffba53;stop-opacity:1;" offset="0.46875"/><stop style="stop-color:#ffba53;stop-opacity:1;" offset="0.476563"/><stop style="stop-color:#ffb953;stop-opacity:1;" offset="0.484375"/><stop style="stop-color:#ffb853;stop-opacity:1;" offset="0.492188"/><stop style="stop-color:#ffb853;stop-opacity:1;" offset="0.5"/><stop style="stop-color:#ffb753;stop-opacity:1;" offset="0.507812"/><stop style="stop-color:#ffb753;stop-opacity:1;" offset="0.515625"/><stop style="stop-color:#ffb653;stop-opacity:1;" offset="0.523438"/><stop style="stop-color:#ffb553;stop-opacity:1;" offset="0.53125"/><stop style="stop-color:#ffb553;stop-opacity:1;" offset="0.539062"/><stop style="stop-color:#ffb452;stop-opacity:1;" offset="0.546875"/><stop style="stop-color:#ffb452;stop-opacity:1;" offset="0.554688"/><stop style="stop-color:#ffb352;stop-opacity:1;" offset="0.5625"/><stop style="stop-color:#ffb252;stop-opacity:1;" offset="0.570312"/><stop style="stop-color:#ffb252;stop-opacity:1;" offset="0.578125"/><stop style="stop-color:#ffb152;stop-opacity:1;" offset="0.585937"/><stop style="stop-color:#ffb152;stop-opacity:1;" offset="0.59375"/><stop style="stop-color:#ffb052;stop-opacity:1;" offset="0.601562"/><stop style="stop-color:#ffaf52;stop-opacity:1;" offset="0.609375"/><stop style="stop-color:#ffaf52;stop-opacity:1;" offset="0.617187"/><stop style="stop-color:#ffae52;stop-opacity:1;" offset="0.625"/><stop style="stop-color:#ffae51;stop-opacity:1;" offset="0.632812"/><stop style="stop-color:#ffad51;stop-opacity:1;" offset="0.640625"/><stop style="stop-color:#ffac51;stop-opacity:1;" offset="0.648437"/><stop style="stop-color:#ffac51;stop-opacity:1;" offset="0.65625"/><stop style="stop-color:#ffab51;stop-opacity:1;" offset="0.664062"/><stop style="stop-color:#ffab51;stop-opacity:1;" offset="0.671875"/><stop style="stop-color:#ffaa51;stop-opacity:1;" offset="0.679687"/><stop style="stop-color:#ffa951;stop-opacity:1;" offset="0.6875"/><stop style="stop-color:#ffa951;stop-opacity:1;" offset="0.695312"/><stop style="stop-color:#ffa851;stop-opacity:1;" offset="0.703125"/><stop style="stop-color:#ffa851;stop-opacity:1;" offset="0.710938"/><stop style="stop-color:#ffa750;stop-opacity:1;" offset="0.71875"/><stop style="stop-color:#ffa650;stop-opacity:1;" offset="0.726562"/><stop style="stop-color:#ffa650;stop-opacity:1;" offset="0.734375"/><stop style="stop-color:#ffa550;stop-opacity:1;" offset="0.742188"/><stop style="stop-color:#ffa550;stop-opacity:1;" offset="0.75"/><stop style="stop-color:#ffa450;stop-opacity:1;" offset="0.757812"/><stop style="stop-color:#ffa350;stop-opacity:1;" offset="0.765625"/><stop style="stop-color:#ffa350;stop-opacity:1;" offset="0.773438"/><stop style="stop-color:#ffa250;stop-opacity:1;" offset="0.78125"/><stop style="stop-color:#ffa250;stop-opacity:1;" offset="0.789062"/><stop style="stop-color:#ffa14f;stop-opacity:1;" offset="0.796875"/><stop style="stop-color:#ffa04f;stop-opacity:1;" offset="0.804688"/><stop style="stop-color:#ffa04f;stop-opacity:1;" offset="0.8125"/><stop style="stop-color:#ff9f4f;stop-opacity:1;" offset="0.820313"/><stop style="stop-color:#ff9f4f;stop-opacity:1;" offset="0.828125"/><stop style="stop-color:#ff9e4f;stop-opacity:1;" offset="0.835938"/><stop style="stop-color:#ff9d4f;stop-opacity:1;" offset="0.84375"/><stop style="stop-color:#ff9d4f;stop-opacity:1;" offset="0.851563"/><stop style="stop-color:#ff9c4f;stop-opacity:1;" offset="0.859375"/><stop style="stop-color:#ff9c4f;stop-opacity:1;" offset="0.867188"/><stop style="stop-color:#ff9b4f;stop-opacity:1;" offset="0.875"/><stop style="stop-color:#ff9a4e;stop-opacity:1;" offset="0.882813"/><stop style="stop-color:#ff9a4e;stop-opacity:1;" offset="0.890625"/><stop style="stop-color:#ff994e;stop-opacity:1;" offset="0.898438"/><stop style="stop-color:#ff994e;stop-opacity:1;" offset="0.90625"/><stop style="stop-color:#ff984e;stop-opacity:1;" offset="0.914063"/><stop style="stop-color:#ff974e;stop-opacity:1;" offset="0.921875"/><stop style="stop-color:#ff974e;stop-opacity:1;" offset="0.929688"/><stop style="stop-color:#ff964e;stop-opacity:1;" offset="0.9375"/><stop style="stop-color:#ff964e;stop-opacity:1;" offset="0.945312"/><stop style="stop-color:#ff954e;stop-opacity:1;" offset="0.953125"/><stop style="stop-color:#ff944e;stop-opacity:1;" offset="0.960938"/><stop style="stop-color:#ff944d;stop-opacity:1;" offset="0.96875"/><stop style="stop-color:#ff934d;stop-opacity:1;" offset="0.976562"/><stop style="stop-color:#ff924d;stop-opacity:1;" offset="0.984375"/><stop style="stop-color:#ff924d;stop-opacity:1;" offset="0.992188"/><stop style="stop-color:#ff914d;stop-opacity:1;" offset="1"/></linearGradient><clipPath id="ab70985eb3"><rect x="0" width="372" y="0" height="372"/></clipPath><clipPath id="a26f366ce5"><rect x="0" width="192" y="0" height="351"/></clipPath></defs><g id="cbd18b9e18"><g clip-rule="nonzero" clip-path="url(#0de01d271d)"><g clip-rule="nonzero" clip-path="url(#c11c0d55fc)"><g transform="matrix(1,0,0,1,0,0)"><g clip-path="url(#ab70985eb3)"><g clip-rule="nonzero" clip-path="url(#0e2423ab1e)"><g clip-rule="nonzero" clip-path="url(#d3f5eea29a)"><path style=" stroke:none;fill-rule:nonzero;fill:url(#2faede59b4);" d="M 0 0 L 0 371.25 L 371.25 371.25 L 371.25 0 Z M 0 0 "/></g></g></g></g></g></g><g transform="matrix(1,0,0,1,90,10)"><g clip-path="url(#a26f366ce5)"><g style="fill:#ffffff;fill-opacity:1;"><g transform="translate(2.413512, 275.379673)"><path style="stroke:none" d="M 150.71875 -148.703125 C 149.382812 -150.117188 146.945312 -152.054688 143.40625 -154.515625 C 139.875 -156.972656 135.554688 -159.363281 130.453125 -161.6875 C 125.359375 -164.007812 119.8125 -166.101562 113.8125 -167.96875 C 107.8125 -169.832031 101.679688 -170.867188 95.421875 -171.078125 C 84.472656 -171.441406 76.148438 -169.660156 70.453125 -165.734375 C 64.753906 -161.816406 61.78125 -156.148438 61.53125 -148.734375 C 61.34375 -143.066406 62.953125 -138.515625 66.359375 -135.078125 C 69.765625 -131.640625 74.941406 -128.628906 81.890625 -126.046875 C 88.847656 -123.472656 97.5625 -120.644531 108.03125 -117.5625 C 121.59375 -113.789062 133.320312 -109.34375 143.21875 -104.21875 C 153.125 -99.09375 160.632812 -92.582031 165.75 -84.6875 C 170.863281 -76.800781 173.207031 -66.515625 172.78125 -53.828125 C 172.414062 -42.679688 170.046875 -33.222656 165.671875 -25.453125 C 161.304688 -17.679688 155.429688 -11.472656 148.046875 -6.828125 C 140.660156 -2.179688 132.335938 1.109375 123.078125 3.046875 C 113.828125 4.992188 104.03125 5.796875 93.6875 5.453125 C 83.320312 5.109375 73 3.6875 62.71875 1.1875 C 52.445312 -1.300781 42.585938 -4.703125 33.140625 -9.015625 C 23.703125 -13.335938 15.078125 -18.460938 7.265625 -24.390625 L 26.28125 -58.671875 C 27.988281 -56.859375 31.039062 -54.457031 35.4375 -51.46875 C 39.84375 -48.488281 45.21875 -45.476562 51.5625 -42.4375 C 57.914062 -39.394531 64.867188 -36.769531 72.421875 -34.5625 C 79.972656 -32.351562 87.65625 -31.117188 95.46875 -30.859375 C 106.40625 -30.492188 114.769531 -32.070312 120.5625 -35.59375 C 126.351562 -39.113281 129.359375 -44.296875 129.578125 -51.140625 C 129.785156 -57.390625 127.703125 -62.347656 123.328125 -66.015625 C 118.953125 -69.679688 112.800781 -72.960938 104.875 -75.859375 C 96.957031 -78.765625 87.578125 -81.960938 76.734375 -85.453125 C 63.773438 -89.597656 52.972656 -94.109375 44.328125 -98.984375 C 35.691406 -103.867188 29.34375 -109.894531 25.28125 -117.0625 C 21.21875 -124.238281 19.363281 -133.101562 19.71875 -143.65625 C 20.1875 -157.914062 23.953125 -169.765625 31.015625 -179.203125 C 38.078125 -188.648438 47.453125 -195.675781 59.140625 -200.28125 C 70.828125 -204.882812 83.703125 -206.953125 97.765625 -206.484375 C 107.523438 -206.160156 116.71875 -204.78125 125.34375 -202.34375 C 133.96875 -199.90625 142.03125 -196.800781 149.53125 -193.03125 C 157.039062 -189.257812 163.75 -185.222656 169.65625 -180.921875 Z M 150.71875 -148.703125 "/></g></g></g></g></g></svg>